
Title: Zatoichi the Last
Year: 2010
Country: Japan
Language: Japanese
Film Genre: Action
Original Title: 座頭市　ＴＨＥ　ＬＡＳＴ
Subtitles: None
Director: Junji Sakamoto
Cast: Shingo Katori, Satomi Ishihara, Takashi Sorimachi, Chieko Baisho, Tatsuya Nakadai
IMDB Link: http://www.imdb.com/title/tt1400558/


Plot or synopsis
Directed by Junji Sakamoto and starring Shingo Katori (SMAP). This is the last episode of a blind master swordsman Ichi depicting his love and last moment.

Ichi attempts to lead a quiet life with his wife, however he is provoked back into battle. . .



General
Complete name : Zatoichi.The.Last.2010.JAP.DVDRip.x264.AC3-BAUM.mkv
Format : Matroska
File size : 1.57 GiB
Duration : 2h 9mn
Overall bit rate : 1 737 Kbps
Encoded date : UTC 2010-12-16 07:01:44
Writing application : mkvmerge v4.4.0 ('Die Wiederkehr') built on Oct 31 2010 21:52:48
Writing library : libebml v1.0.0 + libmatroska v1.0.0
Video #0
ID : 1
Format : AVC
Format/Info : Advanced Video Codec
Format profile : Main@L3.0
Format settings, CABAC : Yes
Format settings, ReFrames : 2 frames
Muxing mode : Container profile=Unknown@3.0
Codec ID : V_MPEG4/ISO/AVC
Duration : 2h 9mn
Bit rate : 1 480 Kbps
Width : 720 pixels
Height : 304 pixels
Display aspect ratio : 2.35:1
Frame rate : 23.976 fps
Color space : YUV
Chroma subsampling : 4:2:0
Bit depth : 8 bits
Scan type : Progressive
Bits/(Pixel*Frame) : 0.282
Stream size : 1.30 GiB (83%)
Audio #1
ID : 2
Format : AC-3
Format/Info : Audio Coding 3
Mode extension : CM (complete main)
Muxing mode : Header stripping
Codec ID : A_AC3
Duration : 2h 9mn
Bit rate mode : Constant
Bit rate : 256 Kbps
Channel(s) : 6 channels
Channel positions : Front: L C R, Side: L R, LFE
Sampling rate : 48.0 KHz
Bit depth : 16 bits
Stream size : 236 MiB (15%)